<?xml version="1.0" encoding="UTF-8" standalone="no"?>
<!-- Created with Inkscape (http://www.inkscape.org/) -->

<svg
   version="1.1"
   id="svg285"
   xml:space="preserve"
   width="32"
   height="32"
   viewBox="0 0 32 32"
   xmlns="http://www.w3.org/2000/svg"
   xmlns:svg="http://www.w3.org/2000/svg"><defs
     id="defs289"><clipPath
       clipPathUnits="userSpaceOnUse"
       id="clipPath299"><path
         d="M 0,24 H 24 V 0 H 0 Z"
         id="path297" /></clipPath></defs><g
     id="g291"
     transform="matrix(1.3333333,0,0,-1.3333333,0,32)"><g
       id="g293"><g
         id="g295"
         clip-path="url(#clipPath299)"><g
           id="g301"
           transform="translate(1.5,1.4917)"><path
             d="M 0,0 6.939,6.944"
             style="fill:none;stroke:#000000;stroke-width:3;stroke-linecap:round;stroke-linejoin:round;stroke-miterlimit:10;stroke-dasharray:none;stroke-opacity:1"
             id="path303" /></g><g
           id="g305"
           transform="translate(16.3096,20.1885)"><path
             d="m 0,0 -5.132,-5.134 -0.829,0.212 c -0.822,0.214 -1.662,0.273 -2.481,0.188 -2.244,-0.235 -3.153,-3.039 -1.558,-4.633 l 3.99,-4.127 c 2.127,-2.126 4.934,-1.214 5.168,1.029 0.085,0.818 0.026,1.655 -0.188,2.476 l -0.209,0.993 5.118,5.119"
             style="fill:none;stroke:#000000;stroke-width:3;stroke-linecap:round;stroke-linejoin:round;stroke-miterlimit:10;stroke-dasharray:none;stroke-opacity:1"
             id="path307" /></g><g
           id="g309"
           transform="translate(20.5449,13.6406)"><path
             d="m 0,0 c 0.697,-0.7 1.82,-0.87 2.621,-0.292 1.02,0.737 1.105,2.173 0.254,3.026 L -4.09,9.719 c -0.697,0.699 -1.82,0.87 -2.621,0.292 C -7.73,9.273 -7.815,7.837 -6.965,6.984 Z"
             style="fill:#000000;fill-opacity:1;fill-rule:nonzero;stroke:none"
             id="path311" /></g></g></g></g></svg>
