<svg xmlns="http://www.w3.org/2000/svg" id="Layer_1" data-name="Layer 1" viewBox="0 0 24 24" width="300" height="300" version="1.1" xmlns:xlink="http://www.w3.org/1999/xlink" xmlns:svgjs="http://svgjs.dev/svgjs"><g width="100%" height="100%" transform="matrix(1,0,0,1,0,0)"><path d="M15.733,13.868l-.349-1.368,3.188-3.188,.856,.867c.944,.945,2.432,1.104,3.457,.364,.634-.456,1.032-1.159,1.095-1.929s-.215-1.523-.759-2.068L17.55,.843c-.947-.949-2.434-1.104-3.457-.364-.634,.456-1.032,1.159-1.095,1.929s.215,1.523,.76,2.069l.93,.93-3.203,3.204-1.345-.343c-.457-.12-.924-.19-1.39-.225L.754,.047,.047,.754,23.246,23.953l.707-.707-7.996-7.996c-.036-.468-.106-.933-.223-1.382Zm-3.944-4.148l4.312-4.313-1.637-1.637c-.337-.338-.509-.805-.471-1.282,.04-.483,.282-.909,.684-1.198,.629-.455,1.562-.344,2.164,.26l5.672,5.703c.337,.338,.509,.805,.471,1.282-.04,.483-.282,.909-.683,1.198-.633,.454-1.564,.343-2.164-.259l-1.562-1.58-4.301,4.302,.47,1.843-4.785-4.785,1.829,.466Zm2.811,8.416l.768,.768c-.392,.937-.957,1.804-1.689,2.536l-.354,.354-5.204-5.208L.718,23.989,.011,23.282l7.405-7.405L2.218,10.676l.354-.354c.73-.731,1.592-1.297,2.525-1.691l.775,.775c-.81,.284-1.571,.715-2.227,1.282l9.669,9.677c.569-.659,1.003-1.418,1.287-2.23Z" fill="none" fill-opacity="1" data-original-color="#000000ff" stroke="#000000" stroke-width="2" stroke-opacity="1"/></g></svg>